<?xml version="1.0" standalone="no"?>
<!DOCTYPE svg PUBLIC "-//W3C//DTD SVG 20010904//EN"
 "http://www.w3.org/TR/2001/REC-SVG-20010904/DTD/svg10.dtd">
<svg version="1.0" xmlns="http://www.w3.org/2000/svg"
 width="1091.000000pt" height="1091.000000pt" viewBox="0 0 1091.000000 1091.000000"
 preserveAspectRatio="xMidYMid meet">
<metadata>
Created by potrace 1.11, written by Peter Selinger 2001-2013
</metadata>
<g transform="translate(0.000000,1091.000000) scale(0.100000,-0.100000)"
fill="#000000" stroke="none">
<path d="M0 8430 c0 -2307 1 -2430 18 -2431 22 0 4817 0 4860 0 l32 1 0 2430
0 2430 -2455 0 -2455 0 0 -2430z m3817 0 l0 -1350 -1363 0 -1362 0 0 1350 1
1350 1362 0 1362 0 0 -1350z"/>
<path d="M6017 7622 c-16 -3 -17 -63 -17 -815 l0 -812 809 1 c445 1 813 4 818
7 6 4 10 317 10 808 0 630 -3 802 -13 806 -14 5 -1580 10 -1607 5z"/>
<path d="M3329 4922 l-57 -3 0 -809 0 -810 41 -1 c58 0 1558 0 1580 0 16 1 17
46 17 811 l0 810 -47 1 c-222 2 -1490 3 -1534 1z"/>
<path d="M6023 4922 l-23 -3 0 -2430 0 -2429 2455 0 2455 0 0 2430 0 2430 -32
1 c-151 2 -4838 3 -4855 1z m3794 -2431 l0 -1348 -1362 -1 -1363 0 0 1349 0
1349 1363 0 1362 0 0 -1349z"/>
</g>
</svg>
